<svg width="512" height="512" viewBox="0 0 512 512" fill="none" xmlns="http://www.w3.org/2000/svg">
<g clip-path="url(#clip0_1603_2323)">
<circle cx="256" cy="256" r="213.333" fill="#1588E7"/>
<path fill-rule="evenodd" clip-rule="evenodd" d="M371.633 215.678C375.237 205.73 374.42 197.095 369.134 189.786C363.848 182.485 355.041 177.48 342.622 174.766C333.926 172.77 319.388 171.756 298.996 171.756L215.317 171.417C210.657 171.406 206.88 175.146 206.867 179.796C206.856 184.428 210.594 188.213 215.212 188.232L258.018 188.064L257.835 188.529L208.489 325.014L159.74 324.848C155.103 324.83 151.304 328.553 151.304 333.195C151.267 337.829 155.011 341.616 159.645 341.635L202.439 341.75H265.061C283.111 341.75 297.966 339.796 309.607 335.916C321.254 332.007 331.733 326.155 341.041 318.282C350.389 310.447 356.778 301.737 360.244 292.18C363.811 282.247 363.774 273.619 360.132 266.347C356.509 259.07 348.762 252.995 336.956 248.15C346.745 243.516 354.391 238.584 359.882 233.294C365.4 228.025 369.31 222.138 371.633 215.678ZM316.508 233.466C322.704 230.168 326.867 225.669 328.965 219.955H328.965C330.852 214.628 329.978 210.422 326.356 207.281C322.686 204.182 315.997 202.618 306.224 202.618H286.427L273.459 238.456H291.593C301.952 238.456 310.275 236.779 316.508 233.466ZM304.338 305.812C311.705 302.435 316.564 297.493 318.896 291.026C321.524 283.707 320.038 277.91 314.334 273.694C308.649 269.466 297.436 267.333 280.686 267.333H263.045L247.29 310.875H266.779C284.421 310.875 296.935 309.219 304.338 305.812ZM193.939 238.545C199.132 238.572 203.292 242.812 203.273 248.007V248.008C203.255 253.188 199.04 257.372 193.847 257.334L149.242 257.642C144.076 257.615 139.898 253.375 139.917 248.195C139.936 242.992 144.166 238.812 149.38 238.83L193.939 238.545Z" fill="white"/>
</g>
<defs>
<clipPath id="clip0_1603_2323">
<rect width="426.667" height="426.667" fill="white" transform="translate(42.667 42.6667)"/>
</clipPath>
</defs>
</svg>
