<svg width="512" height="512" viewBox="0 0 512 512" fill="none" xmlns="http://www.w3.org/2000/svg">
<g clip-path="url(#clip0_1603_2313)">
<rect x="42.667" y="42.6666" width="426.667" height="426.667" rx="213.333" fill="#FB8700"/>
<path fill-rule="evenodd" clip-rule="evenodd" d="M335.853 250.484C327.887 244.502 316.539 242.109 316.539 242.109C316.539 242.109 326.142 236.558 330.066 231.013C333.995 225.465 335.958 216.87 336.286 212.41C336.613 207.948 337.378 189.24 322.756 178.472C311.446 170.14 298.485 166.832 281.08 165.756V128H257.731V165.31H239.947V128H216.601V165.31H170.667V189.485H184.168C187.849 189.485 194.396 189.893 197.177 192.997C199.96 196.096 200.451 197.729 200.451 203.763L200.452 300.09C200.452 302.374 200.016 305.2 198.05 307.051C196.088 308.902 194.125 309.333 189.431 309.333H175.467L170.667 337.293H216.601V374.498H239.948V337.293H257.732V374.498H281.081V336.68C287.117 336.328 292.745 335.873 296.027 335.444L296.557 335.375H296.557C303.457 334.481 318.101 332.583 331.817 323.043C345.89 313.251 349.051 297.913 349.38 282.467C349.711 267.021 343.812 256.467 335.853 250.484L335.853 250.484ZM240.518 191.28C240.518 191.28 247.903 190.627 255.181 190.734C262.461 190.842 268.867 191.061 278.429 194.001C287.986 196.942 293.63 204.129 293.852 212.622C294.068 221.115 290.371 226.775 283.856 230.369C277.34 233.961 268.329 235.921 259.853 236.245C251.382 236.573 240.518 236.245 240.518 236.245V191.28H240.518ZM266.274 309.615C276.596 308.851 287.246 306.226 292.571 303.271C297.893 300.319 304.309 295.723 304.309 284.24C304.309 272.752 296.699 267.94 292.353 265.754C288.008 263.563 278.337 260.612 266.818 259.843C255.298 259.079 240.518 259.843 240.518 259.843V310.054C240.518 310.054 255.949 310.382 266.274 309.615Z" fill="white"/>
</g>
<defs>
<clipPath id="clip0_1603_2313">
<rect width="426.667" height="426.667" fill="white" transform="translate(42.667 42.6666)"/>
</clipPath>
</defs>
</svg>
