<svg width="244" height="244" viewBox="0 0 244 244" fill="none" xmlns="http://www.w3.org/2000/svg">
<path d="M168.75 150C168.75 154.973 166.775 159.742 163.258 163.258C159.742 166.775 154.973 168.75 150 168.75H93.7501V131.25H150C154.973 131.25 159.742 133.225 163.258 136.742C166.775 140.258 168.75 145.027 168.75 150ZM243.75 121.875C243.75 145.98 236.602 169.543 223.21 189.585C209.819 209.627 190.784 225.248 168.515 234.473C146.245 243.697 121.74 246.111 98.0984 241.408C74.457 236.706 52.7409 225.098 35.6964 208.054C18.6519 191.009 7.04442 169.293 2.34185 145.652C-2.36073 122.01 0.0528065 97.5052 9.27724 75.2355C18.5017 52.9657 34.1227 33.9314 54.1649 20.5396C74.2072 7.14784 97.7705 0 121.875 0C154.188 0.0341229 185.167 12.8854 208.016 35.734C230.865 58.5827 243.716 89.5622 243.75 121.875ZM187.5 150C187.499 143.531 185.825 137.173 182.64 131.542C179.455 125.912 174.868 121.201 169.324 117.867C173.403 113.017 176.187 107.211 177.414 100.994C178.642 94.7758 178.273 88.3484 176.343 82.3116C174.413 76.2748 170.985 70.8256 166.378 66.4731C161.771 62.1205 156.137 59.0065 150 57.4219V46.875C150 44.3886 149.012 42.004 147.254 40.2459C145.496 38.4877 143.111 37.5 140.625 37.5C138.139 37.5 135.754 38.4877 133.996 40.2459C132.238 42.004 131.25 44.3886 131.25 46.875V56.25H112.5V46.875C112.5 44.3886 111.512 42.004 109.754 40.2459C107.996 38.4877 105.611 37.5 103.125 37.5C100.639 37.5 98.2541 38.4877 96.4959 40.2459C94.7378 42.004 93.7501 44.3886 93.7501 46.875V56.25H75.0001C72.5136 56.25 70.1291 57.2377 68.3709 58.9959C66.6128 60.754 65.6251 63.1386 65.6251 65.625C65.6251 68.1114 66.6128 70.496 68.3709 72.2541C70.1291 74.0123 72.5136 75 75.0001 75V168.75C72.5136 168.75 70.1291 169.738 68.3709 171.496C66.6128 173.254 65.6251 175.639 65.6251 178.125C65.6251 180.611 66.6128 182.996 68.3709 184.754C70.1291 186.512 72.5136 187.5 75.0001 187.5H93.7501V196.875C93.7501 199.361 94.7378 201.746 96.4959 203.504C98.2541 205.262 100.639 206.25 103.125 206.25C105.611 206.25 107.996 205.262 109.754 203.504C111.512 201.746 112.5 199.361 112.5 196.875V187.5H131.25V196.875C131.25 199.361 132.238 201.746 133.996 203.504C135.754 205.262 138.139 206.25 140.625 206.25C143.111 206.25 145.496 205.262 147.254 203.504C149.012 201.746 150 199.361 150 196.875V187.5C159.946 187.5 169.484 183.549 176.517 176.516C183.549 169.484 187.5 159.946 187.5 150ZM159.375 93.75C159.375 88.7772 157.4 84.0081 153.883 80.4918C150.367 76.9754 145.598 75 140.625 75H93.7501V112.5H140.625C145.598 112.5 150.367 110.525 153.883 107.008C157.4 103.492 159.375 98.7228 159.375 93.75Z" fill="#224E6B"/>
</svg>
