<svg width="263" height="263" viewBox="0 0 263 263" fill="none" xmlns="http://www.w3.org/2000/svg">
<path fill-rule="evenodd" clip-rule="evenodd" d="M131.25 262.5C166.06 262.5 199.444 248.672 224.058 224.058C248.672 199.444 262.5 166.06 262.5 131.25C262.5 96.4403 248.672 63.0564 224.058 38.4422C199.444 13.8281 166.06 0 131.25 0C96.4403 0 63.0564 13.8281 38.4422 38.4422C13.8281 63.0564 0 96.4403 0 131.25C0 166.06 13.8281 199.444 38.4422 224.058C63.0564 248.672 96.4403 262.5 131.25 262.5ZM145.312 65.625C145.312 61.8954 143.831 58.3185 141.194 55.6813C138.556 53.0441 134.98 51.5625 131.25 51.5625C127.52 51.5625 123.944 53.0441 121.306 55.6813C118.669 58.3185 117.188 61.8954 117.188 65.625V131.25C117.188 133.433 117.696 135.586 118.672 137.539C119.648 139.492 121.066 141.19 122.812 142.5L160.312 170.625C161.79 171.733 163.471 172.539 165.26 172.998C167.049 173.456 168.911 173.557 170.739 173.296C172.567 173.035 174.326 172.416 175.915 171.475C177.504 170.535 178.892 169.29 180 167.812C181.108 166.335 181.914 164.654 182.373 162.865C182.831 161.076 182.932 159.214 182.671 157.386C182.41 155.558 181.791 153.799 180.85 152.21C179.91 150.621 178.665 149.233 177.188 148.125L145.312 124.219V65.625Z" fill="#224E6B"/>
</svg>
