<svg width="71" height="71" viewBox="0 0 71 71" fill="none" xmlns="http://www.w3.org/2000/svg">
<circle cx="35.5" cy="35.5" r="35" fill="white" stroke="black"/>
<path d="M49.999 36.7712C50.0018 36.1551 49.9048 33.8309 49.8307 33.1661C48.9773 25.537 42.7754 20 35.0849 20C27.0745 20 20.5843 26.1624 20.144 34.3336C20.1346 34.512 20.069 35.7773 20.0643 36.5306L20.0619 36.9495C20.0234 37.1227 20 37.3016 20 37.486V43.7664C20 45.138 21.1173 46.2536 22.4912 46.2536H25.0198C26.3937 46.2536 27.5114 45.138 27.5114 43.7664V37.4865C27.5114 36.1149 26.3932 34.9993 25.0198 34.9993H22.4907C22.3215 34.9993 22.1528 35.0164 21.9871 35.0503C22.0012 34.7466 22.0138 34.5068 22.0172 34.4343C22.403 27.2724 28.0873 21.8725 35.0848 21.8725C41.8039 21.8725 47.2209 26.7102 47.9664 33.3744C47.9978 33.6525 48.0381 34.3594 48.0705 35.0691C47.889 35.0269 47.7019 34.9993 47.5078 34.9993H45.0087C43.6349 34.9993 42.5175 36.1148 42.5175 37.4865V43.7378C42.5175 44.6849 43.0567 45.5008 43.8389 45.9203L37.8185 48.2801V48.1275C37.8185 47.6107 37.3983 47.1912 36.8807 47.1912H34.0674C33.5497 47.1912 33.1297 47.6107 33.1297 48.1275V49.0637C33.1297 49.5806 33.5497 50 34.0674 50H36.8807C36.8887 50 36.8957 49.9977 36.9037 49.9977L38.5846 49.9911L48.2422 46.2058C48.3688 46.1534 48.4762 46.0752 48.5643 45.9816C49.4097 45.5832 50 44.7312 50 43.7378V37.4864C50 37.3338 49.9812 37.1854 49.9545 37.0407C49.9803 36.9546 49.9986 36.8653 49.999 36.7712ZM22.4907 36.8718H25.0195C25.3594 36.8718 25.6355 37.1471 25.6355 37.4865V43.7669C25.6355 44.1063 25.3589 44.3815 25.0194 44.3815H22.4908C22.1508 44.3815 21.8751 44.1063 21.8751 43.7669V37.4865C21.8756 37.1471 22.1513 36.8718 22.4907 36.8718ZM44.3926 37.4865C44.3926 37.1471 44.6684 36.8718 45.0083 36.8718H47.5074C47.8474 36.8718 48.1235 37.1471 48.1235 37.4865V43.7379C48.1235 44.0773 47.8469 44.3525 47.5074 44.3525H45.0083C44.6683 44.3525 44.3926 44.0773 44.3926 43.7379V37.4865Z" fill="black"/>
</svg>
