<svg width="20" height="18" viewBox="0 0 20 18" fill="none" xmlns="http://www.w3.org/2000/svg">
<path d="M18.8032 0H1.09436C0.804121 0 0.525765 0.101959 0.320532 0.283447C0.115299 0.464934 0 0.711084 0 0.967746V16.6276C0 16.8843 0.115299 17.1305 0.320532 17.3119C0.525765 17.4934 0.804121 17.5954 1.09436 17.5954H10.6253V10.7772H8.03861V8.13787H10.6253V6.15839C10.5717 5.69366 10.6337 5.22418 10.8071 4.7829C10.9804 4.34162 11.2608 3.93921 11.6286 3.6039C11.9964 3.26859 12.4427 3.0085 12.9362 2.84187C13.4297 2.67523 13.9585 2.6061 14.4854 2.63931C15.2597 2.6351 16.0337 2.67034 16.8035 2.74488V5.12026H15.2216C13.9681 5.12026 13.7293 5.64812 13.7293 6.41352V8.11148H16.7139L16.3259 10.7508H13.7293V17.5954H18.8032C18.9469 17.5954 19.0892 17.5704 19.222 17.5217C19.3547 17.4731 19.4754 17.4018 19.577 17.3119C19.6786 17.2221 19.7592 17.1154 19.8142 16.998C19.8692 16.8806 19.8975 16.7547 19.8975 16.6276V0.967746C19.8975 0.84066 19.8692 0.714819 19.8142 0.597406C19.7592 0.479994 19.6786 0.37331 19.577 0.283447C19.4754 0.193583 19.3547 0.122299 19.222 0.0736654C19.0892 0.0250316 18.9469 0 18.8032 0Z" fill="black"/>
</svg>
