<svg width="949" height="947" viewBox="0 0 949 947" fill="none" xmlns="http://www.w3.org/2000/svg">
<path fill-rule="evenodd" clip-rule="evenodd" d="M474.427 804.613C653.532 804.613 798.726 659.42 798.726 480.315C798.726 301.21 653.532 156.016 474.427 156.016C295.322 156.016 150.129 301.21 150.129 480.315C150.129 659.42 295.322 804.613 474.427 804.613ZM473.936 736.908C615.378 736.908 730.039 622.247 730.039 480.805C730.039 339.364 615.378 224.703 473.936 224.703C332.495 224.703 217.834 339.364 217.834 480.805C217.834 622.247 332.495 736.908 473.936 736.908Z" fill="#224E6B"/>
<path fill-rule="evenodd" clip-rule="evenodd" d="M474.427 946.892C736.447 946.892 948.855 734.923 948.855 473.446C948.855 211.969 736.447 0 474.427 0C212.408 0 0 211.969 0 473.446C0 734.923 212.408 946.892 474.427 946.892ZM473.937 875.484C696.667 875.484 877.225 695.267 877.225 472.957C877.225 250.648 696.667 70.43 473.937 70.43C251.207 70.43 70.6491 250.648 70.6491 472.957C70.6491 695.267 251.207 875.484 473.937 875.484Z" fill="#224E6B"/>
<ellipse cx="473.937" cy="480.806" rx="258.065" ry="259.046" fill="#ABDFF1"/>
</svg>
