<svg width="2188" height="792" viewBox="0 0 2188 792" fill="none" xmlns="http://www.w3.org/2000/svg">
<path d="M1888 0H-2.00272e-05V792H1888V0Z" fill="#318CB8"/>
<path fill-rule="evenodd" clip-rule="evenodd" d="M2002.6 631.005C1966.23 646.132 1927.23 653.945 1887.83 654L1887.41 354L1887 54.0003C1926.4 53.9458 1965.42 61.6516 2001.84 76.6777C2038.25 91.7037 2071.36 113.756 2099.25 141.575C2127.15 169.394 2149.29 202.435 2164.42 238.812C2179.55 275.189 2187.36 314.189 2187.41 353.585C2187.47 392.982 2179.76 432.003 2164.74 468.422C2149.71 504.84 2127.66 537.942 2099.84 565.839C2072.02 593.735 2038.98 615.878 2002.6 631.005ZM1984.23 582.769C1953.92 595.374 1921.42 601.886 1888.59 601.931L1888.52 551.862C1914.76 551.816 1940.74 546.608 1964.97 536.532C1989.22 526.447 2011.24 511.685 2029.79 493.088C2048.34 474.49 2063.04 452.422 2073.06 428.143C2083.07 403.864 2088.21 377.85 2088.17 351.585C2088.14 325.321 2082.93 299.321 2072.84 275.07C2062.76 250.819 2048 228.791 2029.4 210.245C2010.8 191.699 1988.73 176.998 1964.46 166.98C1940.2 156.972 1914.21 151.835 1887.97 151.862L1887.9 101.932C1920.73 101.886 1953.25 108.308 1983.59 120.829C2013.94 133.351 2041.53 151.728 2064.77 174.91C2088.02 198.093 2106.47 225.627 2119.08 255.941C2131.69 286.255 2138.2 318.755 2138.24 351.586C2138.29 384.416 2131.87 416.934 2119.34 447.283C2106.82 477.632 2088.45 505.217 2065.26 528.463C2042.08 551.71 2014.55 570.163 1984.23 582.769ZM1888.04 205.208C1907.69 205.199 1927.15 209.052 1945.32 216.547C1963.52 224.06 1980.08 235.086 1994.02 248.995C2007.97 262.905 2019.04 279.425 2026.61 297.614C2034.17 315.802 2038.08 335.302 2038.1 355C2038.13 374.699 2034.28 394.209 2026.77 412.419C2019.25 430.628 2008.23 447.179 1994.32 461.127C1980.41 475.075 1963.89 486.147 1945.7 493.71C1927.55 501.255 1908.1 505.162 1888.45 505.207L1888.24 351.931L1888.04 205.208ZM1887.97 205.208L1887.9 151.862L1887.97 151.862L1888.04 205.208C1888.02 205.208 1887.99 205.208 1887.97 205.208ZM1887.97 205.208L1888.17 351.862L1888.39 505.207C1888.36 505.208 1888.34 505.208 1888.31 505.208L1888.1 355.208L1887.9 205.208C1887.92 205.208 1887.95 205.208 1887.97 205.208ZM1888.39 505.207L1888.45 551.862L1888.52 551.862L1888.45 505.207C1888.43 505.207 1888.41 505.207 1888.39 505.207Z" fill="#318CB8"/>
<path fill-rule="evenodd" clip-rule="evenodd" d="M1770.81 630.005C1807.19 645.132 1846.19 652.945 1885.59 653L1885.66 600.931C1852.88 600.863 1820.44 594.353 1790.18 581.769C1759.87 569.163 1732.33 550.71 1709.15 527.464C1685.97 504.217 1667.59 476.632 1655.07 446.283C1642.55 415.934 1636.13 383.416 1636.17 350.586C1636.22 317.755 1642.73 285.255 1655.34 254.941C1667.94 224.627 1686.39 197.093 1709.64 173.91C1732.89 150.728 1760.47 132.351 1790.82 119.829C1821.12 107.329 1853.58 100.908 1886.35 100.931L1886.41 53.0003C1847.02 52.9458 1808 60.6516 1771.58 75.6777C1735.16 90.7037 1702.06 112.756 1674.16 140.575C1646.27 168.394 1624.12 201.435 1609 237.812C1593.87 274.189 1586.05 313.189 1586 352.585C1585.95 391.982 1593.65 431.003 1608.68 467.422C1623.7 503.84 1645.76 536.942 1673.57 564.839C1701.39 592.735 1734.44 614.878 1770.81 630.005ZM1886.35 100.931L1886 353L1885.66 600.931C1885.71 600.931 1885.77 600.931 1885.83 600.931L1886.17 350.931L1886.52 100.932L1886.35 100.931ZM1884.96 550.862C1858.7 550.826 1832.7 545.616 1808.45 535.532C1784.2 525.447 1762.17 510.685 1743.62 492.088C1725.08 473.49 1710.38 451.422 1700.36 427.143C1690.34 402.864 1685.2 376.85 1685.24 350.585C1685.28 324.321 1690.49 298.321 1700.57 274.07C1710.66 249.819 1725.42 227.791 1744.02 209.245C1762.61 190.699 1784.68 175.998 1808.96 165.98C1833.24 155.963 1859.25 150.826 1885.52 150.862L1885.44 204.208C1885.47 204.208 1885.49 204.208 1885.52 204.208L1885.31 354.208L1885.1 504.208C1885.08 504.208 1885.05 504.208 1885.03 504.207L1884.96 550.862ZM1885.03 504.207C1865.36 504.171 1845.88 500.264 1827.72 492.71C1809.53 485.147 1793.01 474.075 1779.1 460.127C1765.19 446.179 1754.16 429.628 1746.65 411.419C1739.14 393.209 1735.28 373.699 1735.31 354C1735.34 334.302 1739.24 314.802 1746.81 296.614C1754.37 278.425 1765.44 261.905 1779.39 247.995C1793.34 234.086 1809.89 223.06 1828.1 215.547C1846.29 208.043 1865.77 204.19 1885.44 204.208L1885.24 350.862L1885.03 504.207Z" fill="#D3E5EA"/>
</svg>
