<svg width="20" height="18" viewBox="0 0 20 18" fill="none" xmlns="http://www.w3.org/2000/svg">
<path d="M5.77029 0H14.1273C17.3109 0 19.8975 2.2874 19.8975 5.10266V12.4927C19.8975 13.846 19.2896 15.1439 18.2075 16.1009C17.1253 17.0578 15.6576 17.5954 14.1273 17.5954H5.77029C2.58668 17.5954 0 15.308 0 12.4927V5.10266C0 3.74935 0.607939 2.45147 1.69008 1.49454C2.77222 0.537601 4.23991 0 5.77029 0ZM5.57131 1.75954C4.62142 1.75954 3.71044 2.09322 3.03877 2.68718C2.3671 3.28114 1.98975 4.08672 1.98975 4.92671V12.6687C1.98975 14.4194 3.59151 15.8359 5.57131 15.8359H14.3262C15.2761 15.8359 16.1871 15.5022 16.8588 14.9082C17.5304 14.3143 17.9078 13.5087 17.9078 12.6687V4.92671C17.9078 3.17597 16.306 1.75954 14.3262 1.75954H5.57131ZM15.1719 3.07919C15.5017 3.07919 15.818 3.19506 16.0512 3.40129C16.2845 3.60753 16.4155 3.88724 16.4155 4.17891C16.4155 4.47057 16.2845 4.75028 16.0512 4.95652C15.818 5.16276 15.5017 5.27862 15.1719 5.27862C14.8421 5.27862 14.5257 5.16276 14.2925 4.95652C14.0593 4.75028 13.9283 4.47057 13.9283 4.17891C13.9283 3.88724 14.0593 3.60753 14.2925 3.40129C14.5257 3.19506 14.8421 3.07919 15.1719 3.07919ZM9.94877 4.39885C11.2681 4.39885 12.5333 4.8623 13.4662 5.68724C14.3991 6.51218 14.9232 7.63105 14.9232 8.7977C14.9232 9.96434 14.3991 11.0832 13.4662 11.9082C12.5333 12.7331 11.2681 13.1965 9.94877 13.1965C8.62948 13.1965 7.36423 12.7331 6.43135 11.9082C5.49847 11.0832 4.97439 9.96434 4.97439 8.7977C4.97439 7.63105 5.49847 6.51218 6.43135 5.68724C7.36423 4.8623 8.62948 4.39885 9.94877 4.39885ZM9.94877 6.15839C9.1572 6.15839 8.39804 6.43646 7.83832 6.93142C7.27859 7.42639 6.96414 8.09771 6.96414 8.7977C6.96414 9.49768 7.27859 10.169 7.83832 10.664C8.39804 11.1589 9.1572 11.437 9.94877 11.437C10.7403 11.437 11.4995 11.1589 12.0592 10.664C12.619 10.169 12.9334 9.49768 12.9334 8.7977C12.9334 8.09771 12.619 7.42639 12.0592 6.93142C11.4995 6.43646 10.7403 6.15839 9.94877 6.15839Z" fill="black"/>
</svg>
