<svg width="275" height="250" viewBox="0 0 275 250" fill="none" xmlns="http://www.w3.org/2000/svg">
<path d="M137.5 0C144.13 0 150.489 2.63392 155.178 7.32233C159.866 12.0107 162.5 18.3696 162.5 25C162.5 34.25 157.5 42.375 150 46.625V62.5H162.5C185.706 62.5 207.962 71.7187 224.372 88.1282C240.781 104.538 250 126.794 250 150H262.5C265.815 150 268.995 151.317 271.339 153.661C273.683 156.005 275 159.185 275 162.5V200C275 203.315 273.683 206.495 271.339 208.839C268.995 211.183 265.815 212.5 262.5 212.5H250V225C250 231.63 247.366 237.989 242.678 242.678C237.989 247.366 231.63 250 225 250H50C43.3696 250 37.0107 247.366 32.3223 242.678C27.6339 237.989 25 231.63 25 225V212.5H12.5C9.18479 212.5 6.00537 211.183 3.66116 208.839C1.31696 206.495 0 203.315 0 200V162.5C0 159.185 1.31696 156.005 3.66116 153.661C6.00537 151.317 9.18479 150 12.5 150H25C25 126.794 34.2187 104.538 50.6282 88.1282C67.0376 71.7187 89.2936 62.5 112.5 62.5H125V46.625C117.5 42.375 112.5 34.25 112.5 25C112.5 18.3696 115.134 12.0107 119.822 7.32233C124.511 2.63392 130.87 0 137.5 0ZM81.25 137.5C72.962 137.5 65.0134 140.792 59.1529 146.653C53.2924 152.513 50 160.462 50 168.75C50 177.038 53.2924 184.987 59.1529 190.847C65.0134 196.708 72.962 200 81.25 200C89.538 200 97.4866 196.708 103.347 190.847C109.208 184.987 112.5 177.038 112.5 168.75C112.5 160.462 109.208 152.513 103.347 146.653C97.4866 140.792 89.538 137.5 81.25 137.5ZM193.75 137.5C185.462 137.5 177.513 140.792 171.653 146.653C165.792 152.513 162.5 160.462 162.5 168.75C162.5 177.038 165.792 184.987 171.653 190.847C177.513 196.708 185.462 200 193.75 200C202.038 200 209.987 196.708 215.847 190.847C221.708 184.987 225 177.038 225 168.75C225 160.462 221.708 152.513 215.847 146.653C209.987 140.792 202.038 137.5 193.75 137.5Z" fill="#224E6B"/>
</svg>
