<svg width="512" height="512" viewBox="0 0 512 512" fill="none" xmlns="http://www.w3.org/2000/svg">
<g clip-path="url(#clip0_1603_2391)">
<circle cx="256" cy="256" r="213.333" fill="white"/>
<path fill-rule="evenodd" clip-rule="evenodd" d="M469.334 256C469.334 374.223 374.223 469.333 256 469.333C137.777 469.333 42.667 374.223 42.667 256C42.667 137.777 137.777 42.6666 256 42.6666C374.223 42.6666 469.334 137.777 469.334 256ZM258.666 243.557C296 248.001 314.666 258.667 314.666 289.778C314.666 313.778 296.889 332.444 270.223 336.89V358.224C269.333 362.667 266.666 365.334 263.11 365.334H249.777C245.333 364.444 242.666 361.778 242.666 358.224V336.89C213.333 332.444 199.11 316.444 195.556 294.224V293.334C195.556 289.778 198.223 287.111 201.777 287.111H216.889C219.556 287.111 222.223 288.89 223.11 292.444C225.777 305.778 233.777 315.557 256.889 315.557C273.777 315.557 286.223 305.78 286.223 291.557C286.223 277.334 278.223 272.001 253.333 267.557C216 263.111 198.223 251.557 198.223 222.224C198.223 200.001 215.11 182.224 241.777 178.667V158.224C242.666 153.778 245.333 151.111 248.889 151.111H262.223C266.666 152.001 269.333 154.667 269.333 158.224V179.557C289.777 181.334 305.777 196.444 309.333 216.001V216.89C309.333 220.444 306.666 223.111 303.11 223.111H288.889C286.223 223.111 283.556 221.334 282.666 218.667C278.223 205.334 269.333 200.001 253.333 200.001C235.556 200.001 226.666 207.999 226.666 220.444C226.666 232.89 232 240.001 258.666 243.557ZM210.667 383.11C141.334 358.222 105.777 280.889 131.557 212.443C144.89 175.11 174.223 146.666 210.667 133.333C214.223 131.556 216 128.889 216 124.443V111.999C216 108.443 214.223 105.776 210.667 104.889C209.777 104.889 208 104.889 207.111 105.776C122.667 132.443 76.444 222.222 103.111 306.666C119.111 356.443 157.334 394.666 207.111 410.666C210.667 412.443 214.223 410.666 215.111 407.11C216 406.222 216 405.333 216 403.555V391.11C216 388.443 213.334 384.889 210.667 383.11ZM296.89 109.333C297.777 105.777 301.334 104 304.89 105.777C353.777 121.777 392.89 160 408.89 210.667C435.557 295.11 389.334 384.889 304.89 411.556C304 412.444 302.223 412.444 301.334 412.444C297.777 411.556 296 408.889 296 405.333V392.889C296 388.444 297.777 385.777 301.334 384C337.777 370.667 367.111 342.223 380.444 304.889C406.223 236.444 370.667 159.11 301.334 134.223C298.667 132.444 296 128.889 296 125.333V112.889C296 111.11 296 110.223 296.89 109.333Z" fill="#2775CA"/>
</g>
<defs>
<clipPath id="clip0_1603_2391">
<rect width="426.667" height="426.667" fill="white" transform="translate(42.667 42.6666)"/>
</clipPath>
</defs>
</svg>
