<svg width="512" height="512" viewBox="0 0 512 512" fill="none" xmlns="http://www.w3.org/2000/svg">
<g clip-path="url(#clip0_1603_2317)">
<circle cx="256" cy="256" r="213.333" fill="#3EB599"/>
<path d="M282.02 237.632V205.462H353.762V156.444H158.407V205.462H230.157V237.607C171.845 240.353 128 252.195 128 266.382C128 280.569 171.866 292.411 230.157 295.175V398.222H282.037V295.166C340.244 292.411 384 280.577 384 266.404C384 252.23 340.244 240.396 282.037 237.641L282.02 237.632ZM282.037 286.438V286.412C280.573 286.507 273.053 286.97 256.308 286.97C242.92 286.97 233.502 286.581 230.182 286.403V286.447C178.665 284.107 140.211 274.907 140.211 263.899C140.211 252.892 178.669 243.705 230.182 241.361V277.281C233.557 277.519 243.207 278.103 256.527 278.103C272.526 278.103 280.569 277.42 282.045 277.281V241.361C333.461 243.709 371.827 252.918 371.827 263.886C371.827 274.855 333.445 284.068 282.045 286.416" fill="white"/>
</g>
<defs>
<clipPath id="clip0_1603_2317">
<rect width="426.667" height="426.667" fill="white" transform="translate(42.667 42.6666)"/>
</clipPath>
</defs>
</svg>
