<svg width="25" height="14" viewBox="0 0 25 14" fill="none" xmlns="http://www.w3.org/2000/svg">
<path d="M14.5529 13.0016L24.1943 6.63078L14.5529 0.259951C14.4658 0.184784 14.3552 0.122794 14.2285 0.0781758C14.1018 0.0335578 13.962 0.00735412 13.8186 0.00133832C13.6752 -0.00467747 13.5314 0.00963551 13.3972 0.0433078C13.2629 0.0769801 13.1412 0.129226 13.0403 0.196508C12.9394 0.26379 12.8616 0.344538 12.8123 0.433285C12.763 0.522032 12.7433 0.616706 12.7545 0.710897C12.7657 0.805089 12.8076 0.896599 12.8772 0.979233C12.9469 1.06187 13.0428 1.1337 13.1584 1.18985L20.3719 5.97128L1.17932 5.97128C0.913236 5.97128 0.658052 6.04076 0.469902 6.16444C0.281753 6.28812 0.17605 6.45587 0.17605 6.63078C0.17605 6.8057 0.281753 6.97345 0.469902 7.09713C0.658052 7.22081 0.913236 7.29029 1.17932 7.29029L20.3719 7.29029L13.1584 12.0717C12.9708 12.1959 12.8659 12.364 12.8669 12.539C12.8678 12.714 12.9745 12.8816 13.1634 13.0049C13.3523 13.1282 13.608 13.1972 13.8742 13.1965C14.1405 13.1959 14.3954 13.1258 14.583 13.0016H14.5529Z" fill="black"/>
</svg>
