<svg width="23" height="23" viewBox="0 0 23 23" fill="none" xmlns="http://www.w3.org/2000/svg">
<path d="M21.0837 15.7014V7.29875C21.0837 6.66385 20.6668 6.10562 20.0511 5.95133C18.3855 5.5335 14.9431 4.79175 11.5003 4.79175C8.05799 4.79175 4.61518 5.5335 2.9496 5.95133C2.33387 6.1061 1.91699 6.66385 1.91699 7.29875V15.7014C1.91699 16.3363 2.33387 16.8945 2.9496 17.0488C4.61518 17.4667 8.05751 18.2084 11.5003 18.2084C14.9427 18.2084 18.3855 17.4667 20.0511 17.0488C20.6668 16.8941 21.0837 16.3363 21.0837 15.7014Z" stroke="black" stroke-width="2"/>
<path d="M10.8167 14.3266C10.7449 14.3769 10.6606 14.4066 10.5731 14.4124C10.4855 14.4181 10.3981 14.3997 10.3203 14.3592C10.2425 14.3186 10.1773 14.2575 10.1318 14.1825C10.0864 14.1075 10.0624 14.0214 10.0625 13.9337V9.06629C10.0625 8.97865 10.0865 8.89267 10.1319 8.81771C10.1773 8.74276 10.2424 8.6817 10.3202 8.64118C10.3979 8.60067 10.4852 8.58224 10.5727 8.58792C10.6602 8.5936 10.7444 8.62315 10.8162 8.67338L14.2935 11.1075C14.3566 11.1517 14.4081 11.2105 14.4437 11.2788C14.4792 11.3471 14.4978 11.423 14.4978 11.5C14.4978 11.577 14.4792 11.6529 14.4437 11.7212C14.4081 11.7895 14.3566 11.8482 14.2935 11.8924L10.8167 14.3266Z" stroke="black" stroke-width="2" stroke-linejoin="round"/>
</svg>
