<svg width="646" height="1280" viewBox="0 0 646 1280" fill="none" xmlns="http://www.w3.org/2000/svg">
<path fill-rule="evenodd" clip-rule="evenodd" d="M254.366 50.5648C176.961 17.8203 93.864 0.642492 9.82031 0.0121447L8.9872 111.09C78.9003 111.661 148.02 125.974 212.413 153.214C276.918 180.501 335.415 220.226 384.567 270.121C433.719 320.015 472.562 379.102 498.878 444.009C525.195 508.915 538.469 578.369 537.944 648.405C537.419 718.442 523.104 787.689 495.817 852.193C468.53 916.697 428.805 975.195 378.91 1024.35C329.016 1073.5 269.928 1112.34 205.022 1138.66C140.228 1164.93 70.901 1178.2 0.987098 1177.73L0.220185 1279.98C84.2639 1280.61 167.609 1264.68 245.496 1233.1C323.384 1201.52 394.288 1154.91 454.162 1095.92C514.036 1036.94 561.705 966.745 594.45 889.34C627.194 811.935 644.372 728.838 645.003 644.795C645.633 560.751 629.704 477.406 598.124 399.519C566.544 321.631 519.932 250.726 460.95 190.853C401.968 130.979 331.771 83.3094 254.366 50.5648ZM0.987098 1177.73L5.02028 639.994L8.9872 111.09L8.89681 111.089C8.80642 111.088 8.71602 111.087 8.62563 111.087L4.6256 644.405L0.625524 1177.72L0.987098 1177.73ZM9.81215 217.91C65.8413 218.331 121.239 229.783 172.842 251.612C224.446 273.442 271.244 305.222 310.565 345.138C349.887 385.053 380.961 432.323 402.014 484.248C423.068 536.173 433.687 591.736 433.267 647.765C432.847 703.795 421.395 759.192 399.565 810.796C377.736 862.399 345.956 909.197 306.04 948.519C266.124 987.84 218.854 1018.91 166.929 1039.97C115.004 1061.02 59.4412 1071.64 3.41207 1071.22L4.26562 957.419C4.21344 957.419 4.16126 957.418 4.10908 957.418L6.50912 637.427L8.90914 317.436C8.96132 317.436 9.01349 317.436 9.06567 317.437L9.81215 217.91ZM9.06567 317.437C51.0342 317.772 92.5273 326.36 131.182 342.712C169.884 359.084 204.983 382.919 234.474 412.856C263.965 442.793 287.271 478.245 303.061 517.189C318.851 556.133 326.815 597.805 326.5 639.827C326.185 681.849 317.596 723.397 301.224 762.1C284.852 800.802 261.017 835.901 231.08 865.392C201.143 894.883 165.691 918.189 126.747 933.979C87.8517 949.749 46.2344 957.713 4.26562 957.419L6.61212 644.565L9.06567 317.437Z" fill="#D3E5EA"/>
</svg>
