<svg width="70" height="70" viewBox="0 0 70 70" fill="none" xmlns="http://www.w3.org/2000/svg">
<path d="M0.5 30C0.5 13.7076 13.7076 0.5 30 0.5H40C56.2924 0.5 69.5 13.7076 69.5 30V40C69.5 56.2924 56.2924 69.5 40 69.5H30C13.7076 69.5 0.5 56.2924 0.5 40V30Z" fill="white" stroke="black"/>
<path d="M24.9438 42.518L33.9854 30.3781C34.1826 30.1119 34.4506 29.9604 34.7312 29.9566C35.0118 29.9528 35.2822 30.097 35.4838 30.3579L44.7246 42.2482C44.9275 42.5089 45.1988 42.6529 45.4802 42.6491C45.7616 42.6453 46.0305 42.494 46.229 42.2279C46.3267 42.0979 46.404 41.9431 46.4562 41.7725C46.5084 41.6019 46.5345 41.4191 46.533 41.2347C46.5315 41.0504 46.5023 40.8683 46.4473 40.6992C46.3923 40.53 46.3125 40.3773 46.2126 40.2499L36.9737 28.3595C36.3652 27.5782 35.5516 27.1469 34.708 27.1583C33.8644 27.1697 33.0581 27.6229 32.4627 28.4205L23.4231 40.5578C23.325 40.6878 23.2475 40.8428 23.1951 41.0137C23.1427 41.1845 23.1165 41.3676 23.118 41.5523C23.1196 41.7369 23.1488 41.9193 23.204 42.0887C23.2592 42.2581 23.3393 42.411 23.4395 42.5383C23.6424 42.799 23.9137 42.943 24.1951 42.9392C24.4764 42.9354 24.7453 42.7841 24.9438 42.518Z" fill="black"/>
</svg>
