<svg width="903" height="792" viewBox="0 0 903 792" fill="none" xmlns="http://www.w3.org/2000/svg">
<path d="M603 0H-1285V792H603V0Z" fill="#318CB8"/>
<path fill-rule="evenodd" clip-rule="evenodd" d="M717.603 631.005C681.226 646.132 642.226 653.945 602.83 654L602.415 354L602 54.0003C641.397 53.9458 680.418 61.6516 716.837 76.6777C753.255 91.7037 786.357 113.756 814.253 141.575C842.149 169.394 864.293 202.435 879.42 238.812C894.546 275.189 902.36 314.189 902.415 353.585C902.469 392.982 894.763 432.003 879.737 468.422C864.711 504.84 842.659 537.942 814.84 565.839C787.021 593.735 753.98 615.878 717.603 631.005ZM699.233 582.769C668.919 595.374 636.419 601.886 603.588 601.931L603.519 551.862C629.76 551.816 655.736 546.608 679.966 536.532C704.217 526.447 726.245 511.685 744.791 493.088C763.337 474.49 778.038 452.422 788.056 428.143C798.073 403.864 803.21 377.85 803.174 351.585C803.137 325.321 797.928 299.321 787.844 275.07C777.759 250.819 762.997 228.791 744.4 210.245C725.802 191.699 703.734 176.998 679.455 166.98C655.197 156.972 629.207 151.835 602.966 151.862L602.897 101.932C635.727 101.886 668.245 108.308 698.594 120.829C728.943 133.351 756.528 151.728 779.775 174.91C803.021 198.093 821.474 225.627 834.08 255.941C846.686 286.255 853.197 318.755 853.242 351.586C853.288 384.416 846.866 416.934 834.345 447.283C821.823 477.632 803.446 505.217 780.264 528.463C757.081 551.71 729.547 570.163 699.233 582.769ZM603.04 205.208C622.69 205.199 642.15 209.052 660.316 216.547C678.525 224.06 695.076 235.086 709.024 248.995C722.972 262.905 734.044 279.425 741.607 297.614C749.171 315.802 753.077 335.302 753.105 355C753.132 374.699 749.279 394.209 741.766 412.419C734.253 430.628 723.227 447.179 709.317 461.127C695.408 475.075 678.887 486.147 660.699 493.71C642.554 501.255 623.104 505.162 603.455 505.207L603.243 351.931L603.04 205.208ZM602.971 205.208L602.897 151.862L602.966 151.862L603.04 205.208C603.017 205.208 602.994 205.208 602.971 205.208ZM602.971 205.208L603.174 351.862L603.386 505.207C603.361 505.208 603.337 505.208 603.312 505.208L603.105 355.208L602.897 205.208C602.922 205.208 602.947 205.208 602.971 205.208ZM603.386 505.207L603.451 551.862L603.519 551.862L603.455 505.207C603.432 505.207 603.409 505.207 603.386 505.207Z" fill="#318CB8"/>
</svg>
