<svg width="30" height="31" viewBox="0 0 30 31" fill="none" xmlns="http://www.w3.org/2000/svg">
<path d="M29.999 17.6718C30.0018 17.0558 29.9048 14.7315 29.8307 14.0668C28.9773 6.43766 22.7754 0.900635 15.0849 0.900635C7.0745 0.900635 0.584284 7.06308 0.143976 15.2343C0.134598 15.4126 0.0689547 16.678 0.0642659 17.4312L0.0619215 17.8502C0.023444 18.0234 0 18.2022 0 18.3866V24.6671C0 26.0387 1.11734 27.1542 2.49116 27.1542H5.01983C6.39365 27.1542 7.51144 26.0387 7.51144 24.6671V18.3871C7.51144 17.0155 6.39316 15.8999 5.01981 15.8999H2.49069C2.32154 15.9 2.15282 15.9171 1.98712 15.951C2.00118 15.6472 2.01384 15.4075 2.01715 15.3349C2.40304 8.17301 8.08728 2.77315 15.0848 2.77315C21.8039 2.77315 27.2209 7.61079 27.9664 14.2751C27.9978 14.5531 28.0381 15.26 28.0705 15.9697C27.889 15.9276 27.7019 15.8999 27.5078 15.8999H25.0087C23.6349 15.8999 22.5175 17.0155 22.5175 18.3871V24.6385C22.5175 25.5855 23.0567 26.4014 23.8389 26.8209L17.8185 29.1807V29.0281C17.8185 28.5113 17.3983 28.0919 16.8807 28.0919H14.0674C13.5497 28.0919 13.1297 28.5113 13.1297 29.0281V29.9644C13.1297 30.4812 13.5497 30.9006 14.0674 30.9006H16.8807C16.8887 30.9006 16.8957 30.8983 16.9037 30.8983L18.5846 30.8917L28.2422 27.1065C28.3688 27.054 28.4762 26.9758 28.5643 26.8822C29.4097 26.4838 30 25.6318 30 24.6385V18.3871C30 18.2344 29.9812 18.0861 29.9545 17.9414C29.9803 17.8552 29.9986 17.7659 29.999 17.6718ZM2.49072 17.7725H5.01945C5.35939 17.7725 5.63553 18.0477 5.63553 18.3871V24.6675C5.63553 25.0069 5.35889 25.2822 5.0194 25.2822H2.49075C2.15081 25.2822 1.87514 25.0069 1.87514 24.6675V18.3871C1.87558 18.0477 2.15125 17.7725 2.49072 17.7725ZM24.3926 18.3871C24.3926 18.0477 24.6684 17.7725 25.0083 17.7725H27.5074C27.8474 17.7725 28.1235 18.0477 28.1235 18.3871V24.6385C28.1235 24.9779 27.8469 25.2532 27.5074 25.2532H25.0083C24.6683 25.2532 24.3926 24.9779 24.3926 24.6385V18.3871Z" fill="#318CB8"/>
<path d="M28.4633 14.2195C27.6894 7.30145 22.0578 2.27315 15.0848 2.27315C7.81665 2.27315 1.91779 7.88577 1.51788 15.308L1.51786 15.308L1.51767 15.3121C1.51628 15.3425 1.51396 15.3887 1.51086 15.4502C1.50529 15.5609 1.49723 15.7211 1.48765 15.9278L1.45793 16.5696L2.08735 16.4408C2.22007 16.4137 2.35521 16.4 2.49069 16.3999C2.49072 16.3999 2.49074 16.3999 2.49076 16.3999H5.01981C6.11795 16.3999 7.01144 17.2926 7.01144 18.3871V24.6671C7.01144 25.7617 6.11838 26.6542 5.01983 26.6542H2.49116C1.39273 26.6542 0.5 25.7618 0.5 24.6671V18.3866C0.5 18.2448 0.518016 18.1027 0.550023 17.9586L0.561615 17.9064L0.561914 17.853L0.564256 17.4343C0.564257 17.4343 0.564257 17.4342 0.564257 17.4342C0.564257 17.4341 0.564258 17.4341 0.564258 17.434C0.568874 16.695 0.633669 15.4434 0.643267 15.2609C1.06965 7.3509 7.34451 1.40063 15.0849 1.40063C22.5215 1.40063 28.5087 6.74696 29.3338 14.1221C29.4051 14.7625 29.5018 17.0667 29.499 17.6695C29.4989 17.7004 29.4929 17.74 29.4755 17.798L29.4409 17.9135L29.4628 18.0322C29.4862 18.1587 29.5 18.2749 29.5 18.3871V24.6385C29.5 25.4271 29.0318 26.1092 28.3512 26.4299L28.2653 26.4704L28.2003 26.5395C28.1571 26.5854 28.1084 26.6201 28.0544 26.643L18.4892 30.3921L16.9037 30.3983V30.8983L16.9017 30.3983L16.9021 30.3983C16.8831 30.3984 16.8665 30.3994 16.8533 30.4006H14.0674C13.8251 30.4006 13.6297 30.2043 13.6297 29.9644V29.0281C13.6297 28.7882 13.8251 28.5919 14.0674 28.5919H16.8807C17.1229 28.5919 17.3185 28.7882 17.3185 29.0281V29.1807V29.9138L18.0009 29.6462L24.0214 27.2864L25.0287 26.8916L24.0752 26.3803C23.4442 26.0419 23.0175 25.3889 23.0175 24.6385V18.3871C23.0175 17.2924 23.9102 16.3999 25.0087 16.3999H27.5078C27.6543 16.3999 27.8024 16.4208 27.9574 16.4567L28.6 16.6059L28.57 15.9469C28.5378 15.2427 28.497 14.518 28.4633 14.2195ZM28.4633 14.2195L27.9664 14.2751L28.4632 14.2189C28.4632 14.2191 28.4633 14.2193 28.4633 14.2195ZM1.37514 18.3865V18.3871V24.6675C1.37514 25.2837 1.87538 25.7822 2.49075 25.7822H5.01939C5.63352 25.7822 6.13553 25.2846 6.13553 24.6675V18.3871C6.13553 17.7704 5.63431 17.2725 5.01945 17.2725H2.49072C1.87546 17.2725 1.37594 17.7711 1.37514 18.3865ZM25.0083 17.2725C24.393 17.2725 23.8926 17.7708 23.8926 18.3871V24.6385C23.8926 25.2548 24.3929 25.7532 25.0083 25.7532H27.5074C28.1215 25.7532 28.6235 25.2555 28.6235 24.6385V18.3871C28.6235 17.7704 28.1223 17.2725 27.5074 17.2725H25.0083Z" stroke="#318CB8" stroke-opacity="0.721569"/>
</svg>
