<svg width="40" height="40" viewBox="0 0 40 40" fill="none" xmlns="http://www.w3.org/2000/svg">
<path d="M26.8333 11.3333V30.5C26.8333 32.2681 26.131 33.9638 24.8807 35.214C23.6305 36.4643 21.9348 37.1667 20.1667 37.1667C18.3986 37.1667 16.7029 36.4643 15.4526 35.214C14.2024 33.9638 13.5 32.2681 13.5 30.5V9.66667C13.5 8.5616 13.939 7.50179 14.7204 6.72039C15.5018 5.93899 16.5616 5.5 17.6667 5.5C18.7717 5.5 19.8315 5.93899 20.6129 6.72039C21.3943 7.50179 21.8333 8.5616 21.8333 9.66667V27.1667C21.8333 27.6087 21.6577 28.0326 21.3452 28.3452C21.0326 28.6577 20.6087 28.8333 20.1667 28.8333C19.7246 28.8333 19.3007 28.6577 18.9882 28.3452C18.6756 28.0326 18.5 27.6087 18.5 27.1667V11.3333H16V27.1667C16 28.2717 16.439 29.3315 17.2204 30.1129C18.0018 30.8943 19.0616 31.3333 20.1667 31.3333C21.2717 31.3333 22.3315 30.8943 23.1129 30.1129C23.8943 29.3315 24.3333 28.2717 24.3333 27.1667V9.66667C24.3333 7.89856 23.631 6.20286 22.3807 4.95262C21.1305 3.70238 19.4348 3 17.6667 3C15.8986 3 14.2029 3.70238 12.9526 4.95262C11.7024 6.20286 11 7.89856 11 9.66667V30.5C11 32.9311 11.9658 35.2627 13.6849 36.9818C15.4039 38.7009 17.7355 39.6667 20.1667 39.6667C22.5978 39.6667 24.9294 38.7009 26.6485 36.9818C28.3676 35.2627 29.3333 32.9311 29.3333 30.5V11.3333H26.8333Z" fill="black"/>
</svg>
