<svg width="27" height="29" viewBox="0 0 27 29" fill="none" xmlns="http://www.w3.org/2000/svg">
<path d="M25.8922 21.5313L25.8917 21.5305C25.0747 20.1232 23.9374 16.3296 23.9374 11.4439C23.9374 8.67571 22.8377 6.02089 20.8803 4.06348C18.9229 2.10607 16.2681 1.00641 13.4999 1.00641C10.7317 1.00641 8.07686 2.10607 6.11945 4.06348C4.16204 6.02089 3.06238 8.67571 3.06238 11.4439C3.06238 16.3312 1.92365 20.1233 1.10671 21.5305L1.10622 21.5313C0.956739 21.7877 0.877494 22.0789 0.876475 22.3756C0.875456 22.6724 0.9527 22.9641 1.10042 23.2215C1.24813 23.4788 1.4611 23.6927 1.71784 23.8415C1.97458 23.9902 2.26601 24.0687 2.56274 24.0689H8.14187H8.55002L8.63175 24.4688C8.86102 25.5907 9.47075 26.599 10.3578 27.3231C11.2449 28.0472 12.3548 28.4427 13.4999 28.4427C14.645 28.4427 15.7549 28.0472 16.642 27.3231C17.529 26.599 18.1387 25.5907 18.368 24.4688L18.4497 24.0689H18.8579L24.4367 24.0689L24.4374 24.0689M25.8922 21.5313L26.3241 21.2795C26.5178 21.6116 26.6205 21.989 26.6219 22.3736C26.6233 22.7581 26.5233 23.1362 26.332 23.4698C26.1406 23.8033 25.8648 24.0806 25.5321 24.2735C25.1995 24.4665 24.8219 24.5684 24.4374 24.5689V24.0689M25.8922 21.5313C26.0416 21.7876 26.1209 22.0787 26.1219 22.3754C26.123 22.672 26.0458 22.9637 25.8982 23.221C25.7506 23.4783 25.5378 23.6922 25.2812 23.8411C25.0248 23.9898 24.7338 24.0684 24.4374 24.0689M25.8922 21.5313L24.4374 24.0689M10.4073 24.0689H9.7002L9.9359 24.7356C10.1965 25.4726 10.6791 26.1108 11.3173 26.5622C11.9555 27.0136 12.718 27.2562 13.4997 27.2564L13.5 27.2564C14.2818 27.2562 15.0442 27.0136 15.6824 26.5622C16.3207 26.1108 16.8033 25.4726 17.0639 24.7356L17.2996 24.0689H16.5925H10.4073ZM2.13016 22.13L1.69319 22.8814H2.56238H24.4374H25.3067L24.8696 22.13C23.8735 20.4179 22.7499 16.32 22.7499 11.4439C22.7499 8.99066 21.7753 6.63788 20.0406 4.90317C18.3059 3.16846 15.9531 2.19391 13.4999 2.19391C11.0466 2.19391 8.69385 3.16846 6.95914 4.90317C5.22443 6.63788 4.24988 8.99066 4.24988 11.4439C4.24988 16.3239 3.12354 20.4219 2.13016 22.13Z" fill="#318CB8" stroke="#318CB8"/>
</svg>
