<svg width="7619" height="800" viewBox="0 0 7619 800" fill="none" xmlns="http://www.w3.org/2000/svg">
<path d="M7319 0H0.000282288V800H7319V0Z" fill="#318CB8"/>
<path fill-rule="evenodd" clip-rule="evenodd" d="M7433.6 677.004C7397.23 692.131 7358.23 699.945 7318.83 699.999L7318.42 399.999L7318 99.9998C7357.4 99.9453 7396.42 107.651 7432.84 122.677C7469.26 137.703 7502.36 159.755 7530.25 187.574C7558.15 215.393 7580.29 248.435 7595.42 284.811C7610.55 321.188 7618.36 360.188 7618.42 399.585C7618.47 438.981 7610.76 478.003 7595.74 514.421C7580.71 550.84 7558.66 583.942 7530.84 611.838C7503.02 639.734 7469.98 661.878 7433.6 677.004ZM7415.24 628.769C7384.92 641.374 7352.42 647.886 7319.59 647.931L7319.52 597.862C7345.76 597.816 7371.74 592.607 7395.97 582.532C7420.22 572.447 7442.25 557.685 7460.8 539.088C7479.34 520.49 7494.04 498.422 7504.06 474.143C7514.08 449.864 7519.21 423.85 7519.18 397.585C7519.14 371.321 7513.93 345.321 7503.85 321.07C7493.76 296.819 7479 274.791 7460.4 256.245C7441.81 237.699 7419.74 222.998 7395.46 212.98C7371.2 202.972 7345.21 197.835 7318.97 197.862L7318.9 147.931C7351.73 147.886 7384.25 154.308 7414.6 166.829C7444.95 179.351 7472.53 197.728 7495.78 220.91C7519.03 244.093 7537.48 271.627 7550.08 301.941C7562.69 332.255 7569.2 364.755 7569.25 397.585C7569.29 430.416 7562.87 462.934 7550.35 493.283C7537.83 523.631 7519.45 551.217 7496.27 574.463C7473.09 597.71 7445.55 616.163 7415.24 628.769ZM7319.04 251.208C7338.69 251.199 7358.15 255.051 7376.32 262.546C7394.53 270.059 7411.08 281.085 7425.03 294.995C7438.98 308.904 7450.05 325.425 7457.61 343.613C7465.18 361.802 7469.08 381.302 7469.11 401C7469.14 420.698 7465.28 440.209 7457.77 458.418C7450.26 476.628 7439.23 493.179 7425.32 507.127C7411.41 521.075 7394.89 532.147 7376.7 539.71C7358.56 547.255 7339.11 551.161 7319.46 551.207L7319.25 397.931L7319.04 251.208ZM7318.98 251.208L7318.9 197.862L7318.97 197.862L7319.04 251.208C7319.02 251.208 7319 251.208 7318.98 251.208ZM7318.98 251.208L7319.18 397.862L7319.39 551.207C7319.37 551.207 7319.34 551.207 7319.32 551.207L7319.11 401.208L7318.9 251.208C7318.93 251.208 7318.95 251.208 7318.98 251.208ZM7319.39 551.207L7319.46 597.862L7319.52 597.862L7319.46 551.207C7319.44 551.207 7319.41 551.207 7319.39 551.207Z" fill="#318CB8"/>
<path fill-rule="evenodd" clip-rule="evenodd" d="M7202.81 677.005C7239.19 692.132 7278.19 699.945 7317.59 700L7317.66 647.931C7284.88 647.863 7252.44 641.353 7222.18 628.769C7191.87 616.163 7164.33 597.71 7141.15 574.464C7117.97 551.217 7099.59 523.632 7087.07 493.283C7074.55 462.934 7068.13 430.416 7068.17 397.586C7068.22 364.755 7074.73 332.255 7087.34 301.941C7099.94 271.627 7118.39 244.093 7141.64 220.91C7164.89 197.728 7192.47 179.351 7222.82 166.829C7253.12 154.329 7285.58 147.908 7318.35 147.931L7318.41 100C7279.02 99.9458 7240 107.652 7203.58 122.678C7167.16 137.704 7134.06 159.756 7106.16 187.575C7078.27 215.394 7056.12 248.435 7041 284.812C7025.87 321.189 7018.05 360.189 7018 399.585C7017.95 438.982 7025.65 478.003 7040.68 514.422C7055.7 550.84 7077.76 583.942 7105.57 611.839C7133.39 639.735 7166.44 661.878 7202.81 677.005ZM7318.35 147.931L7318 400L7317.66 647.931C7317.71 647.931 7317.77 647.931 7317.83 647.931L7318.17 397.931L7318.52 147.932L7318.35 147.931ZM7316.96 597.862C7290.7 597.826 7264.7 592.616 7240.45 582.532C7216.2 572.447 7194.17 557.685 7175.62 539.088C7157.08 520.49 7142.38 498.422 7132.36 474.143C7122.34 449.864 7117.2 423.85 7117.24 397.585C7117.28 371.321 7122.49 345.321 7132.57 321.07C7142.66 296.819 7157.42 274.791 7176.02 256.245C7194.61 237.699 7216.68 222.998 7240.96 212.98C7265.24 202.963 7291.25 197.826 7317.52 197.862L7317.44 251.208C7317.47 251.208 7317.49 251.208 7317.52 251.208L7317.31 401.208L7317.1 551.208C7317.08 551.208 7317.05 551.208 7317.03 551.207L7316.96 597.862ZM7317.03 551.207C7297.36 551.171 7277.88 547.264 7259.72 539.71C7241.53 532.147 7225.01 521.075 7211.1 507.127C7197.19 493.179 7186.16 476.628 7178.65 458.419C7171.14 440.209 7167.28 420.699 7167.31 401C7167.34 381.302 7171.24 361.802 7178.81 343.614C7186.37 325.425 7197.44 308.905 7211.39 294.995C7225.34 281.086 7241.89 270.06 7260.1 262.547C7278.29 255.043 7297.77 251.19 7317.44 251.208L7317.24 397.862L7317.03 551.207Z" fill="#D3E5EA"/>
</svg>
