<svg width="7619" height="792" viewBox="0 0 7619 792" fill="none" xmlns="http://www.w3.org/2000/svg">
<path d="M7319 0H0.000282288V792H7319V0Z" fill="#318CB8"/>
<path fill-rule="evenodd" clip-rule="evenodd" d="M7433.6 631.005C7397.23 646.132 7358.23 653.945 7318.83 654L7318.41 354L7318 54.0003C7357.4 53.9458 7396.42 61.6516 7432.84 76.6777C7469.25 91.7037 7502.36 113.756 7530.25 141.575C7558.15 169.394 7580.29 202.435 7595.42 238.812C7610.55 275.189 7618.36 314.189 7618.41 353.585C7618.47 392.982 7610.76 432.003 7595.74 468.422C7580.71 504.84 7558.66 537.942 7530.84 565.839C7503.02 593.735 7469.98 615.878 7433.6 631.005ZM7415.23 582.769C7384.92 595.374 7352.42 601.886 7319.59 601.931L7319.52 551.862C7345.76 551.816 7371.74 546.608 7395.97 536.532C7420.22 526.447 7442.24 511.685 7460.79 493.088C7479.34 474.49 7494.04 452.422 7504.06 428.143C7514.07 403.864 7519.21 377.85 7519.17 351.585C7519.14 325.321 7513.93 299.321 7503.84 275.07C7493.76 250.819 7479 228.791 7460.4 210.245C7441.8 191.699 7419.73 176.998 7395.46 166.98C7371.2 156.972 7345.21 151.835 7318.97 151.862L7318.9 101.932C7351.73 101.886 7384.25 108.308 7414.59 120.829C7444.94 133.351 7472.53 151.728 7495.77 174.91C7519.02 198.093 7537.47 225.627 7550.08 255.941C7562.69 286.255 7569.2 318.755 7569.24 351.586C7569.29 384.416 7562.87 416.934 7550.34 447.283C7537.82 477.632 7519.45 505.217 7496.26 528.463C7473.08 551.71 7445.55 570.163 7415.23 582.769ZM7319.04 205.208C7338.69 205.199 7358.15 209.052 7376.32 216.547C7394.52 224.06 7411.08 235.086 7425.02 248.995C7438.97 262.905 7450.04 279.425 7457.61 297.614C7465.17 315.802 7469.08 335.302 7469.1 355C7469.13 374.699 7465.28 394.209 7457.77 412.419C7450.25 430.628 7439.23 447.179 7425.32 461.127C7411.41 475.075 7394.89 486.147 7376.7 493.71C7358.55 501.255 7339.1 505.162 7319.45 505.207L7319.24 351.931L7319.04 205.208ZM7318.97 205.208L7318.9 151.862L7318.97 151.862L7319.04 205.208C7319.02 205.208 7318.99 205.208 7318.97 205.208ZM7318.97 205.208L7319.17 351.862L7319.39 505.207C7319.36 505.208 7319.34 505.208 7319.31 505.208L7319.1 355.208L7318.9 205.208C7318.92 205.208 7318.95 205.208 7318.97 205.208ZM7319.39 505.207L7319.45 551.862L7319.52 551.862L7319.45 505.207C7319.43 505.207 7319.41 505.207 7319.39 505.207Z" fill="#318CB8"/>
<path fill-rule="evenodd" clip-rule="evenodd" d="M7201.81 630.005C7238.19 645.132 7277.19 652.945 7316.59 653L7316.66 600.931C7283.88 600.863 7251.44 594.353 7221.18 581.769C7190.87 569.163 7163.33 550.71 7140.15 527.464C7116.97 504.217 7098.59 476.632 7086.07 446.283C7073.55 415.934 7067.13 383.416 7067.17 350.586C7067.22 317.755 7073.73 285.255 7086.34 254.941C7098.94 224.627 7117.39 197.093 7140.64 173.91C7163.89 150.728 7191.47 132.351 7221.82 119.829C7252.12 107.329 7284.58 100.908 7317.35 100.931L7317.41 53.0003C7278.02 52.9458 7239 60.6516 7202.58 75.6777C7166.16 90.7037 7133.06 112.756 7105.16 140.575C7077.27 168.394 7055.12 201.435 7040 237.812C7024.87 274.189 7017.05 313.189 7017 352.585C7016.95 391.982 7024.65 431.003 7039.68 467.422C7054.7 503.84 7076.76 536.942 7104.57 564.839C7132.39 592.735 7165.44 614.878 7201.81 630.005ZM7317.35 100.931L7317 353L7316.66 600.931C7316.71 600.931 7316.77 600.931 7316.83 600.931L7317.17 350.931L7317.52 100.932L7317.35 100.931ZM7315.96 550.862C7289.7 550.826 7263.7 545.616 7239.45 535.532C7215.2 525.447 7193.17 510.685 7174.62 492.088C7156.08 473.49 7141.38 451.422 7131.36 427.143C7121.34 402.864 7116.2 376.85 7116.24 350.585C7116.28 324.321 7121.49 298.321 7131.57 274.07C7141.66 249.819 7156.42 227.791 7175.02 209.245C7193.61 190.699 7215.68 175.998 7239.96 165.98C7264.24 155.963 7290.25 150.826 7316.52 150.862L7316.44 204.208C7316.47 204.208 7316.49 204.208 7316.52 204.208L7316.31 354.208L7316.1 504.208C7316.08 504.208 7316.05 504.208 7316.03 504.207L7315.96 550.862ZM7316.03 504.207C7296.36 504.171 7276.88 500.264 7258.72 492.71C7240.53 485.147 7224.01 474.075 7210.1 460.127C7196.19 446.179 7185.16 429.628 7177.65 411.419C7170.14 393.209 7166.28 373.699 7166.31 354C7166.34 334.302 7170.24 314.802 7177.81 296.614C7185.37 278.425 7196.44 261.905 7210.39 247.995C7224.34 234.086 7240.89 223.06 7259.1 215.547C7277.29 208.043 7296.77 204.19 7316.44 204.208L7316.24 350.862L7316.03 504.207Z" fill="#D3E5EA"/>
</svg>
